RBDS011runT35_grf
version=1
nRows=30
nColumns=19
inDegrees=no
endheader
time	ground_force_r_vx	ground_force_r_vy	ground_force_r_vz	ground_force_r_px	ground_force_r_py	ground_force_r_pz	ground_force_r_mx	ground_force_r_my	ground_force_r_mz	ground_force_l_vx	ground_force_l_vy	ground_force_l_vz	ground_force_l_px	ground_force_l_py	ground_force_l_pz	ground_force_l_mx	ground_force_l_my	ground_force_l_mz
      7.49900000	      0.00000000	      0.00000000	      0.00000000	      0.00000000	      0.00000000	      0.00000000	      0.00000000	      0.00000000	      0.00000000	   -224.21653856	   1358.97135702	     13.51843189	      2.43257107	      0.00000000	      1.01798763	      0.00000000	      9.96318642	     -0.00000000
      7.50000000	      0.00000000	      0.00000000	      0.00000000	      0.00000000	      0.00000000	      0.00000000	      0.00000000	      0.00000000	      0.00000000	   -227.47770735	   1379.20713342	     13.81716925	      2.43096673	      0.00000000	      1.01823813	      0.00000000	     10.09215924	     -0.00000000
      7.50100000	      0.00000000	      0.00000000	      0.00000000	      0.00000000	      0.00000000	      0.00000000	      0.00000000	      0.00000000	      0.00000000	   -230.30237801	   1397.83711892	     14.19740246	      2.42925536	      0.00000000	      1.01841447	      0.00000000	     10.24054509	     -0.00000000
      7.50200000	      0.00000000	      0.00000000	      0.00000000	      0.00000000	      0.00000000	      0.00000000	      0.00000000	      0.00000000	      0.00000000	   -233.12704868	   1416.46710441	     14.57763566	      2.42754400	      0.00000000	      1.01859081	      0.00000000	     10.38893093	     -0.00000000
      7.50300000	      0.00000000	      0.00000000	      0.00000000	      0.00000000	      0.00000000	      0.00000000	      0.00000000	      0.00000000	      0.00000000	   -235.95171934	   1435.09708991	     14.95786887	      2.42583263	      0.00000000	      1.01876715	      0.00000000	     10.53731677	     -0.00000000
      7.50400000	      0.00000000	      0.00000000	      0.00000000	      0.00000000	      0.00000000	      0.00000000	      0.00000000	      0.00000000	      0.00000000	   -238.42490457	   1452.72542461	     15.40213322	      2.42404247	      0.00000000	      1.01889922	      0.00000000	     10.69726918	     -0.00000000
      7.50500000	      0.00000000	      0.00000000	      0.00000000	      0.00000000	      0.00000000	      0.00000000	      0.00000000	      0.00000000	      0.00000000	   -240.72234708	   1469.85293392	     15.87841315	      2.42221291	      0.00000000	      1.01900916	      0.00000000	     10.86300486	     -0.00000000
      7.50600000	      0.00000000	      0.00000000	      0.00000000	      0.00000000	      0.00000000	      0.00000000	      0.00000000	      0.00000000	      0.00000000	   -243.01978959	   1486.98044322	     16.35469307	      2.42038336	      0.00000000	      1.01911910	      0.00000000	     11.02874054	     -0.00000000
      7.50700000	      0.00000000	      0.00000000	      0.00000000	      0.00000000	      0.00000000	      0.00000000	      0.00000000	      0.00000000	      0.00000000	   -245.11402868	   1503.64142735	     16.86490414	      2.41851139	      0.00000000	      1.01920977	      0.00000000	     11.19932397	     -0.00000000
      7.50800000	      0.00000000	      0.00000000	      0.00000000	      0.00000000	      0.00000000	      0.00000000	      0.00000000	      0.00000000	      0.00000000	   -246.80186094	   1519.36936113	     17.44297750	      2.41655458	      0.00000000	      1.01926188	      0.00000000	     11.37960289	     -0.00000000
      7.50900000	      0.00000000	      0.00000000	      0.00000000	      0.00000000	      0.00000000	      0.00000000	      0.00000000	      0.00000000	      0.00000000	   -248.48969320	   1535.09729492	     18.02105085	      2.41459777	      0.00000000	      1.01931400	      0.00000000	     11.55988182	     -0.00000000
      7.51000000	      0.00000000	      0.00000000	      0.00000000	      0.00000000	      0.00000000	      0.00000000	      0.00000000	      0.00000000	      0.00000000	   -250.17752545	   1550.82522870	     18.59912421	      2.41264096	      0.00000000	      1.01936611	      0.00000000	     11.74016074	     -0.00000000
      7.51100000	      0.00000000	      0.00000000	      0.00000000	      0.00000000	      0.00000000	      0.00000000	      0.00000000	      0.00000000	      0.00000000	   -251.18526002	   1565.24863871	     19.27567325	      2.41055031	      0.00000000	      1.01936946	      0.00000000	     11.93150403	     -0.00000000
      7.51200000	      0.00000000	      0.00000000	      0.00000000	      0.00000000	      0.00000000	      0.00000000	      0.00000000	      0.00000000	      0.00000000	   -252.19299460	   1579.67204871	     19.95222230	      2.40845966	      0.00000000	      1.01937281	      0.00000000	     12.12284733	     -0.00000000
      7.51300000	      0.00000000	      0.00000000	      0.00000000	      0.00000000	      0.00000000	      0.00000000	      0.00000000	      0.00000000	      0.00000000	   -253.20072917	   1594.09545872	     20.62877135	      2.40636901	      0.00000000	      1.01937616	      0.00000000	     12.31419062	     -0.00000000
      7.51400000	      0.00000000	      0.00000000	      0.00000000	      0.00000000	      0.00000000	      0.00000000	      0.00000000	      0.00000000	      0.00000000	   -253.71788217	   1607.70337133	     21.36305946	      2.40418659	      0.00000000	      1.01935315	      0.00000000	     12.51022296	     -0.00000000
      7.51500000	      0.00000000	      0.00000000	      0.00000000	      0.00000000	      0.00000000	      0.00000000	      0.00000000	      0.00000000	      0.00000000	   -253.98974438	   1620.90353525	     22.12621711	      2.40195829	      0.00000000	      1.01931695	      0.00000000	     12.70859984	     -0.00000000
      7.51600000	      0.00000000	      0.00000000	      0.00000000	      0.00000000	      0.00000000	      0.00000000	      0.00000000	      0.00000000	      0.00000000	   -254.26160659	   1634.10369917	     22.88937476	      2.39972999	      0.00000000	      1.01928075	      0.00000000	     12.90697671	     -0.00000000
      7.51700000	      0.00000000	      0.00000000	      0.00000000	      0.00000000	      0.00000000	      0.00000000	      0.00000000	      0.00000000	      0.00000000	   -254.27515973	   1646.91720352	     23.67498425	      2.39745553	      0.00000000	      1.01923438	      0.00000000	     13.10622445	     -0.00000000
      7.51800000	      0.00000000	      0.00000000	      0.00000000	      0.00000000	      0.00000000	      0.00000000	      0.00000000	      0.00000000	      0.00000000	   -253.77209473	   1658.95738874	     24.50549742	      2.39508874	      0.00000000	      1.01916770	      0.00000000	     13.30721391	     -0.00000000
      7.51900000	      0.00000000	      0.00000000	      0.00000000	      0.00000000	      0.00000000	      0.00000000	      0.00000000	      0.00000000	      0.00000000	   -253.26902973	   1670.99757396	     25.33601060	      2.39272196	      0.00000000	      1.01910101	      0.00000000	     13.50820338	     -0.00000000
      7.52000000	      0.00000000	      0.00000000	      0.00000000	      0.00000000	      0.00000000	      0.00000000	      0.00000000	      0.00000000	      0.00000000	   -252.76596473	   1683.03775918	     26.16652377	      2.39035517	      0.00000000	      1.01903432	      0.00000000	     13.70919285	     -0.00000000
      7.52100000	      0.00000000	      0.00000000	      0.00000000	      0.00000000	      0.00000000	      0.00000000	      0.00000000	      0.00000000	      0.00000000	   -251.46680368	   1693.96071121	     27.03939578	      2.38785212	      0.00000000	      1.01894579	      0.00000000	     13.90817381	     -0.00000000
      7.52200000	      0.00000000	      0.00000000	      0.00000000	      0.00000000	      0.00000000	      0.00000000	      0.00000000	      0.00000000	      0.00000000	   -250.16764263	   1704.88366323	     27.91226779	      2.38534906	      0.00000000	      1.01885727	      0.00000000	     14.10715478	     -0.00000000
      7.52300000	      0.00000000	      0.00000000	      0.00000000	      0.00000000	      0.00000000	      0.00000000	      0.00000000	      0.00000000	      0.00000000	   -248.86848158	   1715.80661526	     28.78513979	      2.38284601	      0.00000000	      1.01876874	      0.00000000	     14.30613575	     -0.00000000
      7.52400000	      0.00000000	      0.00000000	      0.00000000	      0.00000000	      0.00000000	      0.00000000	      0.00000000	      0.00000000	      0.00000000	   -247.03662434	   1725.99897867	     29.66704614	      2.38025557	      0.00000000	      1.01867100	      0.00000000	     14.50069936	     -0.00000000
      7.52500000	      0.00000000	      0.00000000	      0.00000000	      0.00000000	      0.00000000	      0.00000000	      0.00000000	      0.00000000	      0.00000000	   -244.93841902	   1735.82604777	     30.55346967	      2.37762144	      0.00000000	      1.01856864	      0.00000000	     14.69305429	     -0.00000000
      7.52600000	      0.00000000	      0.00000000	      0.00000000	      0.00000000	      0.00000000	      0.00000000	      0.00000000	      0.00000000	      0.00000000	   -242.84021369	   1745.65311687	     31.43989319	      2.37498731	      0.00000000	      1.01846628	      0.00000000	     14.88540922	     -0.00000000
      7.52700000	      0.00000000	      0.00000000	      0.00000000	      0.00000000	      0.00000000	      0.00000000	      0.00000000	      0.00000000	      0.00000000	   -240.48060113	   1755.11507207	     32.32064045	      2.37231214	      0.00000000	      1.01836172	      0.00000000	     15.07408505	     -0.00000000
      7.52800000	      0.00000000	      0.00000000	      0.00000000	      0.00000000	      0.00000000	      0.00000000	      0.00000000	      0.00000000	      0.00000000	   -237.59817409	   1763.84679947	     33.19003518	      2.36955491	      0.00000000	      1.01825272	      0.00000000	     15.25540268	     -0.00000000
